<svg width="256" height="256" viewBox="0 0 256 256" fill="none" xmlns="http://www.w3.org/2000/svg">
<rect width="256" height="256" rx="128" fill="black"/>
<path d="M216 113.003V147.003C216 153.197 214.344 159.008 211.449 164.006C205.574 174.17 194.586 181.01 182 181.01C169.414 181.01 158.426 174.17 152.551 164.006C149.656 159.008 148 153.197 148 147.003V130C148 123.806 146.344 118.002 143.449 112.997C137.574 102.833 126.586 95.9936 114 95.9936C101.414 95.9936 90.4256 102.833 84.5512 112.997C81.6556 118.002 80 123.806 80 130V147.003C80 153.197 78.3444 159.008 75.4488 164.006C69.5744 174.17 58.5862 181.01 46 181.01V147.01C58.5862 147.01 69.5744 140.17 75.4488 130.006C78.3444 125.008 80 119.197 80 113.003V96C80 89.806 81.6556 84.0019 84.5512 79.0032C90.4256 68.8396 101.414 62 114 62C126.586 62 137.574 68.8396 143.449 79.0032C146.344 84.0083 148 89.8124 148 96V113.003C148 119.197 149.656 125.008 152.551 130.006C158.426 140.17 169.414 147.01 182 147.01C194.586 147.01 205.574 140.17 211.449 130.006C214.344 125.008 216 119.197 216 113.003Z" fill="white" stroke="white" stroke-width="0.639218" stroke-miterlimit="10"/>
</svg>
