<svg width="759" height="356" viewBox="0 0 759 356" fill="none" xmlns="http://www.w3.org/2000/svg">
<g clip-path="url(#clip0_17_37)">
<path d="M570.916 333.641C585.252 339.411 600.805 342.835 617.137 343.405C639.238 344.177 660.255 339.608 679.044 330.928C656.513 322.075 636.108 309.13 618.692 293.035C607.403 311.109 590.706 325.386 570.916 333.641Z" fill="#FF9100"/>
<path d="M618.69 293.04C578.936 256.273 554.819 203.058 556.857 144.69C556.924 142.795 557.024 140.901 557.141 139.007C550.021 137.166 542.588 136.042 534.939 135.775C523.99 135.393 513.386 136.75 503.376 139.569C492.763 158.159 486.359 179.488 485.561 202.334C483.503 261.294 519.183 312.813 570.914 333.647C590.704 325.391 607.401 311.132 618.69 293.04Z" fill="#FFC400"/>
<path d="M618.69 293.038C627.933 278.247 633.537 260.906 634.189 242.223C635.905 193.078 602.867 150.802 557.142 139.005C557.024 140.899 556.925 142.793 556.858 144.688C554.82 203.056 578.936 256.272 618.69 293.038Z" fill="#FF9100"/>
<path d="M629.076 0.862671C603.033 21.726 582.469 49.2362 570.026 80.9273C562.903 99.0795 558.427 118.578 557.12 139.017C602.846 150.814 635.884 193.09 634.168 242.235C633.516 260.918 627.895 278.242 618.669 293.051C636.084 309.162 656.49 322.092 679.021 330.943C724.245 310.038 756.332 265.055 758.19 211.848C759.394 177.376 746.149 146.652 727.434 120.718C707.669 93.2909 629.076 0.862671 629.076 0.862671Z" fill="#DD2C00"/>
</g>
<path d="M421.562 166.688H388.938V131.812C388.938 130.271 388.365 128.792 387.345 127.702C386.325 126.612 384.942 126 383.5 126C382.058 126 380.675 126.612 379.655 127.702C378.635 128.792 378.062 130.271 378.062 131.812V166.688H345.438C343.995 166.688 342.612 167.3 341.593 168.39C340.573 169.48 340 170.958 340 172.5C340 174.042 340.573 175.52 341.593 176.61C342.612 177.7 343.995 178.312 345.438 178.312H378.062V213.188C378.062 214.729 378.635 216.208 379.655 217.298C380.675 218.388 382.058 219 383.5 219C384.942 219 386.325 218.388 387.345 217.298C388.365 216.208 388.938 214.729 388.938 213.188V178.312H421.562C423.005 178.312 424.388 177.7 425.407 176.61C426.427 175.52 427 174.042 427 172.5C427 170.958 426.427 169.48 425.407 168.39C424.388 167.3 423.005 166.688 421.562 166.688Z" fill="#BBBBBB"/>
<path d="M283.333 244H56.6667V132H170L283.333 244Z" fill="#24A8FF"/>
<path d="M283.333 20H56.6667L170 132H283.333V20Z" fill="#8DDCFF"/>
<path d="M170 244V356L56.6667 244H170Z" fill="#054EFF"/>
<defs>
<clipPath id="clip0_17_37">
<rect width="274" height="344" fill="white" transform="translate(485)"/>
</clipPath>
</defs>
</svg>
